<svg width="35" height="35" viewBox="0 0 35 35" fill="none" xmlns="http://www.w3.org/2000/svg">
<g opacity="0.6">
<path d="M3.44 25.3468L3.41334 25.3735C3.05334 24.5868 2.82667 23.6935 2.73334 22.7068C2.82667 23.6801 3.08 24.5601 3.44 25.3468Z" fill="white"/>
<path d="M12 13.8401C13.7526 13.8401 15.1733 12.4193 15.1733 10.6667C15.1733 8.91416 13.7526 7.49341 12 7.49341C10.2474 7.49341 8.82666 8.91416 8.82666 10.6667C8.82666 12.4193 10.2474 13.8401 12 13.8401Z" fill="white"/>
<path d="M21.5867 2.66675H10.4134C5.56002 2.66675 2.66669 5.56008 2.66669 10.4134V21.5868C2.66669 23.0401 2.92002 24.3068 3.41335 25.3734C4.56002 27.9068 7.01335 29.3334 10.4134 29.3334H21.5867C21.4997 25.5001 24.9997 21.4268 29.3334 21.5868V18.5334V10.4134C29.3334 5.56008 26.44 2.66675 21.5867 2.66675ZM27.16 16.6667C26.12 15.7734 24.44 15.7734 23.4 16.6667L17.8534 21.4267C16.8134 22.3201 15.1334 22.3201 14.0934 21.4267L13.64 21.0534C12.6934 20.2267 11.1867 20.1467 10.12 20.8667L5.13335 24.2134C4.84002 23.4667 4.66669 22.6001 4.66669 21.5868V10.4134C4.66669 6.65341 6.65335 4.66675 10.4134 4.66675H21.5867C25.3467 4.66675 27.3334 6.65341 27.3334 10.4134V16.8134L27.16 16.6667Z" fill="white"/>
</g>
<path d="M30.4441 22.1665H25.5558C23.4325 22.1665 22.1666 23.4323 22.1666 25.5557V30.4382C22.1666 32.5673 23.4325 33.8332 25.5558 33.8332H30.4383C32.5616 33.8332 33.8275 32.5673 33.8275 30.444V25.5557C33.8333 23.4323 32.5675 22.1665 30.4441 22.1665ZM31.5 28.4373H28.4375V31.4998C28.4375 31.739 28.2391 31.9373 28 31.9373C27.7608 31.9373 27.5625 31.739 27.5625 31.4998V28.4373H24.5C24.2608 28.4373 24.0625 28.239 24.0625 27.9998C24.0625 27.7607 24.2608 27.5623 24.5 27.5623H27.5625V24.4998C27.5625 24.2607 27.7608 24.0623 28 24.0623C28.2391 24.0623 28.4375 24.2607 28.4375 24.4998V27.5623H31.5C31.7391 27.5623 31.9375 27.7607 31.9375 27.9998C31.9375 28.239 31.7391 28.4373 31.5 28.4373Z" fill="url(#paint0_linear_85_1990)"/>
<path d="M30.4443 21.6665C31.6052 21.6665 32.592 22.0145 33.2881 22.7114C33.9842 23.4084 34.3311 24.3951 34.3281 25.5562V30.4438C34.3281 31.6049 33.98 32.5918 33.2832 33.2886C32.5865 33.9853 31.5996 34.3335 30.4385 34.3335H25.5566C24.3957 34.3335 23.4087 33.9851 22.7119 33.2876C22.0152 32.59 21.667 31.6016 21.667 30.438V25.5562L21.6709 25.3403C21.7116 24.2725 22.0586 23.3647 22.7119 22.7114C23.4087 22.0147 24.3955 21.6665 25.5566 21.6665H30.4443Z" stroke="black"/>
<defs>
<linearGradient id="paint0_linear_85_1990" x1="27.9971" y1="22.1665" x2="27.9971" y2="33.8332" gradientUnits="userSpaceOnUse">
<stop stop-color="#E48B59"/>
<stop offset="1" stop-color="#F16F25"/>
</linearGradient>
</defs>
</svg>
