<svg width="24" height="24" viewBox="0 0 24 24" fill="none" xmlns="http://www.w3.org/2000/svg">
<path d="M13.75 13C13.75 12.6685 13.8817 12.3505 14.1161 12.1161C14.3505 11.8817 14.6685 11.75 15 11.75C15.3315 11.75 15.6495 11.8817 15.8839 12.1161C16.1183 12.3505 16.25 12.6685 16.25 13C16.25 13.3315 16.1183 13.6495 15.8839 13.8839C15.6495 14.1183 15.3315 14.25 15 14.25C14.6685 14.25 14.3505 14.1183 14.1161 13.8839C13.8817 13.6495 13.75 13.3315 13.75 13ZM22 12V20C22 21.1046 21.1046 22 20 22H4C2.89543 22 2 21.1046 2 20V12C2 6.5 6.5 2 12 2C17.5 2 22 6.5 22 12ZM4 12C4 16.41 7.59 20 12 20C16.41 20 20 16.41 20 12C20 11.21 19.88 10.45 19.67 9.74C17.7367 10.1897 15.7133 10.052 13.8587 9.34478C12.0041 8.63752 10.4029 7.39279 9.26 5.77C8.28 8.16 6.41 10.09 4.05 11.14C4 11.42 4 11.71 4 12ZM9 14.25C9.33152 14.25 9.64946 14.1183 9.88388 13.8839C10.1183 13.6495 10.25 13.3315 10.25 13C10.25 12.6685 10.1183 12.3505 9.88388 12.1161C9.64946 11.8817 9.33152 11.75 9 11.75C8.66848 11.75 8.35054 11.8817 8.11612 12.1161C7.8817 12.3505 7.75 12.6685 7.75 13C7.75 13.3315 7.8817 13.6495 8.11612 13.8839C8.35054 14.1183 8.66848 14.25 9 14.25Z" fill="white" fill-opacity="0.6"/>
</svg>
