<svg width="16" height="16" viewBox="0 0 16 16" fill="none" xmlns="http://www.w3.org/2000/svg">
<path d="M13.8867 5.34005L9.52 1.84672C8.66667 1.16672 7.33333 1.16005 6.48667 1.84005L2.12 5.34005C1.49333 5.84005 1.11333 6.84005 1.24667 7.62672L2.08667 12.6534C2.28 13.7801 3.32667 14.6667 4.46667 14.6667H11.5333C12.66 14.6667 13.7267 13.7601 13.92 12.6467L14.76 7.62005C14.88 6.84005 14.5 5.84005 13.8867 5.34005ZM8.5 12.0001C8.5 12.2734 8.27333 12.5001 8 12.5001C7.72667 12.5001 7.5 12.2734 7.5 12.0001V10.0001C7.5 9.72672 7.72667 9.50005 8 9.50005C8.27333 9.50005 8.5 9.72672 8.5 10.0001V12.0001Z" fill="#FFBB95" fill-opacity="0.4"/>
</svg>
