<svg width="16" height="16" viewBox="0 0 16 16" fill="none" xmlns="http://www.w3.org/2000/svg">
<path d="M12.5333 6.60669C11.78 6.60669 11.1067 6.97336 10.6867 7.53336C10.2667 6.97336 9.59334 6.60669 8.84001 6.60669C7.56667 6.60669 6.53334 7.64669 6.53334 8.92669C6.53334 9.42002 6.61334 9.88002 6.74667 10.3C7.40001 12.3734 9.42667 13.62 10.4267 13.96C10.5667 14.0067 10.8 14.0067 10.94 13.96C11.94 13.62 13.9667 12.38 14.62 10.3C14.76 9.87336 14.8333 9.42002 14.8333 8.92669C14.84 7.64669 13.8067 6.60669 12.5333 6.60669Z" fill="#FFBB95" fill-opacity="0.4"/>
<path d="M13.8333 5.55998C13.8333 5.71332 13.68 5.81332 13.5333 5.77332C12.6333 5.53998 11.6467 5.73332 10.9 6.26665C10.7533 6.37332 10.5533 6.37332 10.4133 6.26665C9.88666 5.87998 9.24666 5.66665 8.57333 5.66665C6.85333 5.66665 5.45333 7.07332 5.45333 8.80665C5.45333 10.6867 6.35333 12.0933 7.26 13.0333C7.30666 13.08 7.26666 13.16 7.20666 13.1333C5.38666 12.5133 1.33333 9.93998 1.33333 5.55998C1.33333 3.62665 2.88666 2.06665 4.80666 2.06665C5.94666 2.06665 6.95333 2.61332 7.58666 3.45998C8.22666 2.61332 9.23333 2.06665 10.3667 2.06665C12.28 2.06665 13.8333 3.62665 13.8333 5.55998Z" fill="#FFBB95" fill-opacity="0.4"/>
</svg>
